<svg width="271" height="120" viewBox="0 0 271 120" fill="none" xmlns="http://www.w3.org/2000/svg">
<g clip-path="url(#clip0_2_181)">
<path d="M226.9 22.3C225.7 21.3 224.7 20 223.4 19.3L237.6 0C238.9 0.8 240.2 1.7 241.4 2.6C272.9 25.7 279.8 70 256.7 101.5C256.3 102.1 255.8 102.7 255.3 103.3L234.2 87.8C249.5 66.1 245.2 38.5 226.9 22.3Z" fill="url(#paint0_linear_2_181)"/>
<path d="M169.7 23.8L164 12.1C178.2 4.09998 194.9 2.79998 210.1 9.49998L202.4 21.2C191.8 17.5 180 18.6 169.7 23.8Z" fill="url(#paint1_linear_2_181)"/>
<path d="M228.1 59.5C228.3 46.6 222.8 34.2 212.2 26.4C209.5 24.4 206.5 22.8 203.5 21.6C203.1 21.5 202.7 21.3 202.4 21.2L210.1 9.49999C210.5 9.69999 210.8 9.79999 211.2 9.99999C210.5 9.69999 210.1 9.49999 210.1 9.49999L212.8 5.79999C212.8 5.79999 220.1 7.99999 227.6 13.6C227.6 13.6 250.3 30.1 248.6 55.6L228.1 59.5Z" fill="#A7A9AC"/>
<path d="M194.1 13.4C200.6 14.1 205.6 13.6 216.2 21.3C225.2 27.9 227.9 33.9 230.5 39.8L214.1 47C212.4 43.4 209.9 40.1 206.4 37.5C202 34.3 197 32.8 191.9 32.8L194.1 13.4Z" fill="#91BBBA"/>
<path d="M116.6 94.8L152.9 54.6H171.2L135 94.8H116.6Z" fill="#009BDF"/>
<path d="M111.1 54.6L135.1 94.8H116.7L92.8 54.6H111.1Z" fill="#8DC63F"/>
<path d="M69.5 120H45.9L31 93.2L23.1 99.5L20 120H0L10 54.6H30L26.5 77.8L53.9 54.6H78.6L46.4 81.1L69.5 120Z" fill="#103D84"/>
<path d="M199 120H176.3L186.3 54.6H209L199 120Z" fill="#103D84"/>
<path d="M101.1 120H78.3999L88.3999 54.6H111.1L101.1 120Z" fill="#103D84"/>
<path d="M165.6 120H142.9L152.9 54.6H175.6L165.6 120Z" fill="#103D84"/>
</g>
<defs>
<linearGradient id="paint0_linear_2_181" x1="245.345" y1="0.1165" x2="248.952" y2="91.3118" gradientUnits="userSpaceOnUse">
<stop stop-color="#6DCFF6"/>
<stop offset="1" stop-color="#30395C"/>
</linearGradient>
<linearGradient id="paint1_linear_2_181" x1="167.711" y1="17.0937" x2="206.354" y2="11.426" gradientUnits="userSpaceOnUse">
<stop stop-color="#B0C935"/>
<stop offset="0.048182" stop-color="#ADC73C"/>
<stop offset="0.1284" stop-color="#A2C253"/>
<stop offset="0.2307" stop-color="#91BA74"/>
<stop offset="0.3511" stop-color="#78B097"/>
<stop offset="0.4852" stop-color="#51A5BF"/>
<stop offset="0.5674" stop-color="#219ED9"/>
<stop offset="0.8652" stop-color="#0075BF"/>
<stop offset="0.9944" stop-color="#005C97"/>
</linearGradient>
<clipPath id="clip0_2_181">
<rect width="270.3" height="120" fill="white"/>
</clipPath>
</defs>
</svg>
